<mxfile host="app.diagrams.net" modified="2024-05-21T14:39:29.755Z" agent="Mozilla/5.0 (Windows NT 10.0; Win64; x64) AppleWebKit/537.36 (KHTML, like Gecko) Chrome/124.0.0.0 Safari/537.36" etag="gV88UTwIbdznonE8ynRe" version="24.4.0" type="device">
  <diagram id="C5RBs43oDa-KdzZeNtuy" name="Page-1">
    <mxGraphModel dx="2389" dy="2014" grid="1" gridSize="10" guides="1" tooltips="1" connect="1" arrows="1" fold="1" page="1" pageScale="1" pageWidth="827" pageHeight="1169" math="0" shadow="0">
      <root>
        <mxCell id="WIyWlLk6GJQsqaUBKTNV-0" />
        <mxCell id="WIyWlLk6GJQsqaUBKTNV-1" parent="WIyWlLk6GJQsqaUBKTNV-0" />
        <mxCell id="BYFHXTLkIRluyruA3xxx-0" value="Type" style="swimlane;fontStyle=0;childLayout=stackLayout;horizontal=1;startSize=26;fillColor=none;horizontalStack=0;resizeParent=1;resizeParentMax=0;resizeLast=0;collapsible=1;marginBottom=0;whiteSpace=wrap;html=1;" parent="WIyWlLk6GJQsqaUBKTNV-1" vertex="1">
          <mxGeometry x="120" y="-20" width="180" height="234" as="geometry" />
        </mxCell>
        <mxCell id="BYFHXTLkIRluyruA3xxx-3" value="+ firstLineNumber : int" style="text;strokeColor=none;fillColor=none;align=left;verticalAlign=top;spacingLeft=4;spacingRight=4;overflow=hidden;rotatable=0;points=[[0,0.5],[1,0.5]];portConstraint=eastwest;whiteSpace=wrap;html=1;" parent="BYFHXTLkIRluyruA3xxx-0" vertex="1">
          <mxGeometry y="26" width="180" height="26" as="geometry" />
        </mxCell>
        <mxCell id="BYFHXTLkIRluyruA3xxx-2" value="+ lastLineNumber : int" style="text;strokeColor=none;fillColor=none;align=left;verticalAlign=top;spacingLeft=4;spacingRight=4;overflow=hidden;rotatable=0;points=[[0,0.5],[1,0.5]];portConstraint=eastwest;whiteSpace=wrap;html=1;" parent="BYFHXTLkIRluyruA3xxx-0" vertex="1">
          <mxGeometry y="52" width="180" height="26" as="geometry" />
        </mxCell>
        <mxCell id="BYFHXTLkIRluyruA3xxx-1" value="+ effectiveLineCount : int" style="text;strokeColor=none;fillColor=none;align=left;verticalAlign=top;spacingLeft=4;spacingRight=4;overflow=hidden;rotatable=0;points=[[0,0.5],[1,0.5]];portConstraint=eastwest;whiteSpace=wrap;html=1;" parent="BYFHXTLkIRluyruA3xxx-0" vertex="1">
          <mxGeometry y="78" width="180" height="26" as="geometry" />
        </mxCell>
        <mxCell id="BYFHXTLkIRluyruA3xxx-56" value="+ name : string" style="text;strokeColor=none;fillColor=none;align=left;verticalAlign=top;spacingLeft=4;spacingRight=4;overflow=hidden;rotatable=0;points=[[0,0.5],[1,0.5]];portConstraint=eastwest;whiteSpace=wrap;html=1;" parent="BYFHXTLkIRluyruA3xxx-0" vertex="1">
          <mxGeometry y="104" width="180" height="26" as="geometry" />
        </mxCell>
        <mxCell id="BYFHXTLkIRluyruA3xxx-57" value="+ fqn: string" style="text;strokeColor=none;fillColor=none;align=left;verticalAlign=top;spacingLeft=4;spacingRight=4;overflow=hidden;rotatable=0;points=[[0,0.5],[1,0.5]];portConstraint=eastwest;whiteSpace=wrap;html=1;" parent="BYFHXTLkIRluyruA3xxx-0" vertex="1">
          <mxGeometry y="130" width="180" height="26" as="geometry" />
        </mxCell>
        <mxCell id="BYFHXTLkIRluyruA3xxx-58" value="+ partial : bool" style="text;strokeColor=none;fillColor=none;align=left;verticalAlign=top;spacingLeft=4;spacingRight=4;overflow=hidden;rotatable=0;points=[[0,0.5],[1,0.5]];portConstraint=eastwest;whiteSpace=wrap;html=1;" parent="BYFHXTLkIRluyruA3xxx-0" vertex="1">
          <mxGeometry y="156" width="180" height="26" as="geometry" />
        </mxCell>
        <mxCell id="BYFHXTLkIRluyruA3xxx-59" value="+ relativePath : string" style="text;strokeColor=none;fillColor=none;align=left;verticalAlign=top;spacingLeft=4;spacingRight=4;overflow=hidden;rotatable=0;points=[[0,0.5],[1,0.5]];portConstraint=eastwest;whiteSpace=wrap;html=1;" parent="BYFHXTLkIRluyruA3xxx-0" vertex="1">
          <mxGeometry y="182" width="180" height="26" as="geometry" />
        </mxCell>
        <mxCell id="BYFHXTLkIRluyruA3xxx-60" value="+ accessibility : string" style="text;strokeColor=none;fillColor=none;align=left;verticalAlign=top;spacingLeft=4;spacingRight=4;overflow=hidden;rotatable=0;points=[[0,0.5],[1,0.5]];portConstraint=eastwest;whiteSpace=wrap;html=1;" parent="BYFHXTLkIRluyruA3xxx-0" vertex="1">
          <mxGeometry y="208" width="180" height="26" as="geometry" />
        </mxCell>
        <mxCell id="BYFHXTLkIRluyruA3xxx-169" value="PARTIAL_WITH" style="html=1;verticalAlign=bottom;endArrow=block;curved=0;rounded=0;exitX=1.004;exitY=0.825;exitDx=0;exitDy=0;exitPerimeter=0;entryX=1.007;entryY=1.004;entryDx=0;entryDy=0;entryPerimeter=0;" parent="BYFHXTLkIRluyruA3xxx-0" source="BYFHXTLkIRluyruA3xxx-1" target="BYFHXTLkIRluyruA3xxx-56" edge="1">
          <mxGeometry x="0.0507" y="50" width="80" relative="1" as="geometry">
            <mxPoint x="200" y="120" as="sourcePoint" />
            <mxPoint x="280" y="120" as="targetPoint" />
            <Array as="points">
              <mxPoint x="230" y="100" />
              <mxPoint x="230" y="130" />
            </Array>
            <mxPoint as="offset" />
          </mxGeometry>
        </mxCell>
        <mxCell id="BYFHXTLkIRluyruA3xxx-19" style="edgeStyle=orthogonalEdgeStyle;rounded=0;orthogonalLoop=1;jettySize=auto;html=1;endArrow=block;endFill=0;" parent="WIyWlLk6GJQsqaUBKTNV-1" source="BYFHXTLkIRluyruA3xxx-14" target="BYFHXTLkIRluyruA3xxx-0" edge="1">
          <mxGeometry relative="1" as="geometry" />
        </mxCell>
        <mxCell id="BYFHXTLkIRluyruA3xxx-14" value="Member&lt;span style=&quot;background-color: initial;&quot;&gt;Owning&lt;/span&gt;" style="swimlane;fontStyle=0;childLayout=stackLayout;horizontal=1;startSize=26;fillColor=none;horizontalStack=0;resizeParent=1;resizeParentMax=0;resizeLast=0;collapsible=1;marginBottom=0;whiteSpace=wrap;html=1;" parent="WIyWlLk6GJQsqaUBKTNV-1" vertex="1">
          <mxGeometry x="140" y="260" width="140" height="50" as="geometry" />
        </mxCell>
        <mxCell id="BYFHXTLkIRluyruA3xxx-32" style="edgeStyle=orthogonalEdgeStyle;rounded=0;orthogonalLoop=1;jettySize=auto;html=1;endArrow=block;endFill=0;" parent="WIyWlLk6GJQsqaUBKTNV-1" source="BYFHXTLkIRluyruA3xxx-20" target="BYFHXTLkIRluyruA3xxx-23" edge="1">
          <mxGeometry relative="1" as="geometry" />
        </mxCell>
        <mxCell id="BYFHXTLkIRluyruA3xxx-20" value="RecordClass" style="swimlane;fontStyle=0;childLayout=stackLayout;horizontal=1;startSize=26;fillColor=none;horizontalStack=0;resizeParent=1;resizeParentMax=0;resizeLast=0;collapsible=1;marginBottom=0;whiteSpace=wrap;html=1;" parent="WIyWlLk6GJQsqaUBKTNV-1" vertex="1">
          <mxGeometry y="520" width="140" height="50" as="geometry" />
        </mxCell>
        <mxCell id="BYFHXTLkIRluyruA3xxx-30" style="edgeStyle=orthogonalEdgeStyle;rounded=0;orthogonalLoop=1;jettySize=auto;html=1;exitX=0.5;exitY=0;exitDx=0;exitDy=0;endArrow=block;endFill=0;" parent="WIyWlLk6GJQsqaUBKTNV-1" source="BYFHXTLkIRluyruA3xxx-21" target="BYFHXTLkIRluyruA3xxx-14" edge="1">
          <mxGeometry relative="1" as="geometry">
            <Array as="points">
              <mxPoint x="370" y="360" />
              <mxPoint x="210" y="360" />
            </Array>
          </mxGeometry>
        </mxCell>
        <mxCell id="BYFHXTLkIRluyruA3xxx-21" value="Interface" style="swimlane;fontStyle=0;childLayout=stackLayout;horizontal=1;startSize=26;fillColor=none;horizontalStack=0;resizeParent=1;resizeParentMax=0;resizeLast=0;collapsible=1;marginBottom=0;whiteSpace=wrap;html=1;" parent="WIyWlLk6GJQsqaUBKTNV-1" vertex="1">
          <mxGeometry x="300" y="380" width="140" height="50" as="geometry" />
        </mxCell>
        <mxCell id="BYFHXTLkIRluyruA3xxx-28" style="edgeStyle=orthogonalEdgeStyle;rounded=0;orthogonalLoop=1;jettySize=auto;html=1;endArrow=block;endFill=0;" parent="WIyWlLk6GJQsqaUBKTNV-1" source="BYFHXTLkIRluyruA3xxx-22" target="BYFHXTLkIRluyruA3xxx-14" edge="1">
          <mxGeometry relative="1" as="geometry">
            <Array as="points">
              <mxPoint x="210" y="360" />
              <mxPoint x="210" y="360" />
            </Array>
          </mxGeometry>
        </mxCell>
        <mxCell id="BYFHXTLkIRluyruA3xxx-22" value="Struct" style="swimlane;fontStyle=0;childLayout=stackLayout;horizontal=1;startSize=26;fillColor=none;horizontalStack=0;resizeParent=1;resizeParentMax=0;resizeLast=0;collapsible=1;marginBottom=0;whiteSpace=wrap;html=1;" parent="WIyWlLk6GJQsqaUBKTNV-1" vertex="1">
          <mxGeometry x="150" y="380" width="140" height="52" as="geometry" />
        </mxCell>
        <mxCell id="BYFHXTLkIRluyruA3xxx-41" value="+ readOnly : bool" style="text;strokeColor=none;fillColor=none;align=left;verticalAlign=top;spacingLeft=4;spacingRight=4;overflow=hidden;rotatable=0;points=[[0,0.5],[1,0.5]];portConstraint=eastwest;whiteSpace=wrap;html=1;" parent="BYFHXTLkIRluyruA3xxx-22" vertex="1">
          <mxGeometry y="26" width="140" height="26" as="geometry" />
        </mxCell>
        <mxCell id="BYFHXTLkIRluyruA3xxx-29" style="edgeStyle=orthogonalEdgeStyle;rounded=0;orthogonalLoop=1;jettySize=auto;html=1;endArrow=block;endFill=0;" parent="WIyWlLk6GJQsqaUBKTNV-1" source="BYFHXTLkIRluyruA3xxx-23" target="BYFHXTLkIRluyruA3xxx-14" edge="1">
          <mxGeometry relative="1" as="geometry">
            <Array as="points">
              <mxPoint x="70" y="360" />
              <mxPoint x="210" y="360" />
            </Array>
          </mxGeometry>
        </mxCell>
        <mxCell id="BYFHXTLkIRluyruA3xxx-23" value="Class" style="swimlane;fontStyle=0;childLayout=stackLayout;horizontal=1;startSize=26;fillColor=none;horizontalStack=0;resizeParent=1;resizeParentMax=0;resizeLast=0;collapsible=1;marginBottom=0;whiteSpace=wrap;html=1;" parent="WIyWlLk6GJQsqaUBKTNV-1" vertex="1">
          <mxGeometry y="380" width="140" height="104" as="geometry" />
        </mxCell>
        <mxCell id="BYFHXTLkIRluyruA3xxx-43" value="+ sealed : bool&lt;div&gt;&lt;br&gt;&lt;/div&gt;" style="text;strokeColor=none;fillColor=none;align=left;verticalAlign=top;spacingLeft=4;spacingRight=4;overflow=hidden;rotatable=0;points=[[0,0.5],[1,0.5]];portConstraint=eastwest;whiteSpace=wrap;html=1;" parent="BYFHXTLkIRluyruA3xxx-23" vertex="1">
          <mxGeometry y="26" width="140" height="26" as="geometry" />
        </mxCell>
        <mxCell id="BYFHXTLkIRluyruA3xxx-47" value="&lt;div&gt;+ s&lt;span style=&quot;background-color: initial;&quot;&gt;tatic : bool&lt;/span&gt;&lt;/div&gt;" style="text;strokeColor=none;fillColor=none;align=left;verticalAlign=top;spacingLeft=4;spacingRight=4;overflow=hidden;rotatable=0;points=[[0,0.5],[1,0.5]];portConstraint=eastwest;whiteSpace=wrap;html=1;" parent="BYFHXTLkIRluyruA3xxx-23" vertex="1">
          <mxGeometry y="52" width="140" height="26" as="geometry" />
        </mxCell>
        <mxCell id="BYFHXTLkIRluyruA3xxx-48" value="&lt;div&gt;+ abstract : bool&lt;/div&gt;" style="text;strokeColor=none;fillColor=none;align=left;verticalAlign=top;spacingLeft=4;spacingRight=4;overflow=hidden;rotatable=0;points=[[0,0.5],[1,0.5]];portConstraint=eastwest;whiteSpace=wrap;html=1;" parent="BYFHXTLkIRluyruA3xxx-23" vertex="1">
          <mxGeometry y="78" width="140" height="26" as="geometry" />
        </mxCell>
        <mxCell id="BYFHXTLkIRluyruA3xxx-31" style="edgeStyle=orthogonalEdgeStyle;rounded=0;orthogonalLoop=1;jettySize=auto;html=1;endArrow=block;endFill=0;" parent="WIyWlLk6GJQsqaUBKTNV-1" source="BYFHXTLkIRluyruA3xxx-24" target="BYFHXTLkIRluyruA3xxx-22" edge="1">
          <mxGeometry relative="1" as="geometry" />
        </mxCell>
        <mxCell id="BYFHXTLkIRluyruA3xxx-24" value="RecordStruct" style="swimlane;fontStyle=0;childLayout=stackLayout;horizontal=1;startSize=26;fillColor=none;horizontalStack=0;resizeParent=1;resizeParentMax=0;resizeLast=0;collapsible=1;marginBottom=0;whiteSpace=wrap;html=1;" parent="WIyWlLk6GJQsqaUBKTNV-1" vertex="1">
          <mxGeometry x="150" y="520" width="140" height="50" as="geometry" />
        </mxCell>
        <mxCell id="BYFHXTLkIRluyruA3xxx-50" value="Member" style="swimlane;fontStyle=0;childLayout=stackLayout;horizontal=1;startSize=26;fillColor=none;horizontalStack=0;resizeParent=1;resizeParentMax=0;resizeLast=0;collapsible=1;marginBottom=0;whiteSpace=wrap;html=1;" parent="WIyWlLk6GJQsqaUBKTNV-1" vertex="1">
          <mxGeometry x="-340" y="220" width="140" height="130" as="geometry" />
        </mxCell>
        <mxCell id="BYFHXTLkIRluyruA3xxx-52" value="+ name : string" style="text;strokeColor=none;fillColor=none;align=left;verticalAlign=top;spacingLeft=4;spacingRight=4;overflow=hidden;rotatable=0;points=[[0,0.5],[1,0.5]];portConstraint=eastwest;whiteSpace=wrap;html=1;" parent="BYFHXTLkIRluyruA3xxx-50" vertex="1">
          <mxGeometry y="26" width="140" height="26" as="geometry" />
        </mxCell>
        <mxCell id="BYFHXTLkIRluyruA3xxx-79" value="+ fqn : string" style="text;strokeColor=none;fillColor=none;align=left;verticalAlign=top;spacingLeft=4;spacingRight=4;overflow=hidden;rotatable=0;points=[[0,0.5],[1,0.5]];portConstraint=eastwest;whiteSpace=wrap;html=1;" parent="BYFHXTLkIRluyruA3xxx-50" vertex="1">
          <mxGeometry y="52" width="140" height="26" as="geometry" />
        </mxCell>
        <mxCell id="BYFHXTLkIRluyruA3xxx-80" value="+ accessibility : string" style="text;strokeColor=none;fillColor=none;align=left;verticalAlign=top;spacingLeft=4;spacingRight=4;overflow=hidden;rotatable=0;points=[[0,0.5],[1,0.5]];portConstraint=eastwest;whiteSpace=wrap;html=1;" parent="BYFHXTLkIRluyruA3xxx-50" vertex="1">
          <mxGeometry y="78" width="140" height="26" as="geometry" />
        </mxCell>
        <mxCell id="BYFHXTLkIRluyruA3xxx-81" value="+ signature :string" style="text;strokeColor=none;fillColor=none;align=left;verticalAlign=top;spacingLeft=4;spacingRight=4;overflow=hidden;rotatable=0;points=[[0,0.5],[1,0.5]];portConstraint=eastwest;whiteSpace=wrap;html=1;" parent="BYFHXTLkIRluyruA3xxx-50" vertex="1">
          <mxGeometry y="104" width="140" height="26" as="geometry" />
        </mxCell>
        <mxCell id="BYFHXTLkIRluyruA3xxx-55" value="DECLARES" style="html=1;verticalAlign=bottom;endArrow=block;curved=0;rounded=0;" parent="WIyWlLk6GJQsqaUBKTNV-1" source="BYFHXTLkIRluyruA3xxx-14" target="BYFHXTLkIRluyruA3xxx-50" edge="1">
          <mxGeometry x="-0.3529" width="80" relative="1" as="geometry">
            <mxPoint x="-70" y="290" as="sourcePoint" />
            <mxPoint x="10" y="290" as="targetPoint" />
            <mxPoint as="offset" />
          </mxGeometry>
        </mxCell>
        <mxCell id="BYFHXTLkIRluyruA3xxx-77" style="edgeStyle=orthogonalEdgeStyle;rounded=0;orthogonalLoop=1;jettySize=auto;html=1;endArrow=block;endFill=0;" parent="WIyWlLk6GJQsqaUBKTNV-1" source="BYFHXTLkIRluyruA3xxx-63" target="BYFHXTLkIRluyruA3xxx-50" edge="1">
          <mxGeometry relative="1" as="geometry">
            <Array as="points">
              <mxPoint x="-110" y="376" />
              <mxPoint x="-260" y="376" />
            </Array>
          </mxGeometry>
        </mxCell>
        <mxCell id="BYFHXTLkIRluyruA3xxx-83" style="edgeStyle=orthogonalEdgeStyle;rounded=0;orthogonalLoop=1;jettySize=auto;html=1;entryX=-0.004;entryY=0.153;entryDx=0;entryDy=0;entryPerimeter=0;exitX=0.75;exitY=0;exitDx=0;exitDy=0;" parent="WIyWlLk6GJQsqaUBKTNV-1" source="BYFHXTLkIRluyruA3xxx-63" target="BYFHXTLkIRluyruA3xxx-58" edge="1">
          <mxGeometry relative="1" as="geometry">
            <mxPoint x="-100" y="402" as="sourcePoint" />
            <mxPoint x="100" y="130" as="targetPoint" />
            <Array as="points">
              <mxPoint x="-80" y="416" />
              <mxPoint x="-80" y="140" />
            </Array>
          </mxGeometry>
        </mxCell>
        <mxCell id="BYFHXTLkIRluyruA3xxx-63" value="Field" style="swimlane;fontStyle=0;childLayout=stackLayout;horizontal=1;startSize=26;fillColor=none;horizontalStack=0;resizeParent=1;resizeParentMax=0;resizeLast=0;collapsible=1;marginBottom=0;whiteSpace=wrap;html=1;" parent="WIyWlLk6GJQsqaUBKTNV-1" vertex="1">
          <mxGeometry x="-180" y="416" width="140" height="104" as="geometry" />
        </mxCell>
        <mxCell id="BYFHXTLkIRluyruA3xxx-64" value="+ volatile : bool" style="text;strokeColor=none;fillColor=none;align=left;verticalAlign=top;spacingLeft=4;spacingRight=4;overflow=hidden;rotatable=0;points=[[0,0.5],[1,0.5]];portConstraint=eastwest;whiteSpace=wrap;html=1;" parent="BYFHXTLkIRluyruA3xxx-63" vertex="1">
          <mxGeometry y="26" width="140" height="26" as="geometry" />
        </mxCell>
        <mxCell id="BYFHXTLkIRluyruA3xxx-65" value="+ required : bool" style="text;strokeColor=none;fillColor=none;align=left;verticalAlign=top;spacingLeft=4;spacingRight=4;overflow=hidden;rotatable=0;points=[[0,0.5],[1,0.5]];portConstraint=eastwest;whiteSpace=wrap;html=1;" parent="BYFHXTLkIRluyruA3xxx-63" vertex="1">
          <mxGeometry y="52" width="140" height="26" as="geometry" />
        </mxCell>
        <mxCell id="BYFHXTLkIRluyruA3xxx-66" value="+ static : bool" style="text;strokeColor=none;fillColor=none;align=left;verticalAlign=top;spacingLeft=4;spacingRight=4;overflow=hidden;rotatable=0;points=[[0,0.5],[1,0.5]];portConstraint=eastwest;whiteSpace=wrap;html=1;" parent="BYFHXTLkIRluyruA3xxx-63" vertex="1">
          <mxGeometry y="78" width="140" height="26" as="geometry" />
        </mxCell>
        <mxCell id="BYFHXTLkIRluyruA3xxx-76" style="edgeStyle=orthogonalEdgeStyle;rounded=0;orthogonalLoop=1;jettySize=auto;html=1;endArrow=block;endFill=0;" parent="WIyWlLk6GJQsqaUBKTNV-1" source="BYFHXTLkIRluyruA3xxx-67" target="BYFHXTLkIRluyruA3xxx-50" edge="1">
          <mxGeometry relative="1" as="geometry">
            <Array as="points">
              <mxPoint x="-270" y="396" />
              <mxPoint x="-270" y="396" />
            </Array>
          </mxGeometry>
        </mxCell>
        <mxCell id="BYFHXTLkIRluyruA3xxx-67" value="Property" style="swimlane;fontStyle=0;childLayout=stackLayout;horizontal=1;startSize=26;fillColor=none;horizontalStack=0;resizeParent=1;resizeParentMax=0;resizeLast=0;collapsible=1;marginBottom=0;whiteSpace=wrap;html=1;" parent="WIyWlLk6GJQsqaUBKTNV-1" vertex="1">
          <mxGeometry x="-340" y="416" width="140" height="104" as="geometry" />
        </mxCell>
        <mxCell id="BYFHXTLkIRluyruA3xxx-68" value="+ readOnly : bool" style="text;strokeColor=none;fillColor=none;align=left;verticalAlign=top;spacingLeft=4;spacingRight=4;overflow=hidden;rotatable=0;points=[[0,0.5],[1,0.5]];portConstraint=eastwest;whiteSpace=wrap;html=1;" parent="BYFHXTLkIRluyruA3xxx-67" vertex="1">
          <mxGeometry y="26" width="140" height="26" as="geometry" />
        </mxCell>
        <mxCell id="BYFHXTLkIRluyruA3xxx-69" value="+ required : bool" style="text;strokeColor=none;fillColor=none;align=left;verticalAlign=top;spacingLeft=4;spacingRight=4;overflow=hidden;rotatable=0;points=[[0,0.5],[1,0.5]];portConstraint=eastwest;whiteSpace=wrap;html=1;" parent="BYFHXTLkIRluyruA3xxx-67" vertex="1">
          <mxGeometry y="52" width="140" height="26" as="geometry" />
        </mxCell>
        <mxCell id="BYFHXTLkIRluyruA3xxx-70" value="+ static : bool" style="text;strokeColor=none;fillColor=none;align=left;verticalAlign=top;spacingLeft=4;spacingRight=4;overflow=hidden;rotatable=0;points=[[0,0.5],[1,0.5]];portConstraint=eastwest;whiteSpace=wrap;html=1;" parent="BYFHXTLkIRluyruA3xxx-67" vertex="1">
          <mxGeometry y="78" width="140" height="26" as="geometry" />
        </mxCell>
        <mxCell id="BYFHXTLkIRluyruA3xxx-78" style="edgeStyle=orthogonalEdgeStyle;rounded=0;orthogonalLoop=1;jettySize=auto;html=1;endArrow=block;endFill=0;" parent="WIyWlLk6GJQsqaUBKTNV-1" source="BYFHXTLkIRluyruA3xxx-71" target="BYFHXTLkIRluyruA3xxx-50" edge="1">
          <mxGeometry relative="1" as="geometry">
            <Array as="points">
              <mxPoint x="-450" y="376" />
              <mxPoint x="-280" y="376" />
            </Array>
          </mxGeometry>
        </mxCell>
        <mxCell id="BYFHXTLkIRluyruA3xxx-71" value="Method" style="swimlane;fontStyle=0;childLayout=stackLayout;horizontal=1;startSize=26;fillColor=none;horizontalStack=0;resizeParent=1;resizeParentMax=0;resizeLast=0;collapsible=1;marginBottom=0;whiteSpace=wrap;html=1;" parent="WIyWlLk6GJQsqaUBKTNV-1" vertex="1">
          <mxGeometry x="-540" y="416" width="180" height="416" as="geometry" />
        </mxCell>
        <mxCell id="BYFHXTLkIRluyruA3xxx-72" value="+ implementation : bool" style="text;strokeColor=none;fillColor=none;align=left;verticalAlign=top;spacingLeft=4;spacingRight=4;overflow=hidden;rotatable=0;points=[[0,0.5],[1,0.5]];portConstraint=eastwest;whiteSpace=wrap;html=1;" parent="BYFHXTLkIRluyruA3xxx-71" vertex="1">
          <mxGeometry y="26" width="180" height="26" as="geometry" />
        </mxCell>
        <mxCell id="BYFHXTLkIRluyruA3xxx-73" value="+ cyclomaticComplexity : int" style="text;strokeColor=none;fillColor=none;align=left;verticalAlign=top;spacingLeft=4;spacingRight=4;overflow=hidden;rotatable=0;points=[[0,0.5],[1,0.5]];portConstraint=eastwest;whiteSpace=wrap;html=1;" parent="BYFHXTLkIRluyruA3xxx-71" vertex="1">
          <mxGeometry y="52" width="180" height="26" as="geometry" />
        </mxCell>
        <mxCell id="BYFHXTLkIRluyruA3xxx-74" value="+ firstLineNumber : int" style="text;strokeColor=none;fillColor=none;align=left;verticalAlign=top;spacingLeft=4;spacingRight=4;overflow=hidden;rotatable=0;points=[[0,0.5],[1,0.5]];portConstraint=eastwest;whiteSpace=wrap;html=1;" parent="BYFHXTLkIRluyruA3xxx-71" vertex="1">
          <mxGeometry y="78" width="180" height="26" as="geometry" />
        </mxCell>
        <mxCell id="BYFHXTLkIRluyruA3xxx-85" value="+ lastLineNumber : int" style="text;strokeColor=none;fillColor=none;align=left;verticalAlign=top;spacingLeft=4;spacingRight=4;overflow=hidden;rotatable=0;points=[[0,0.5],[1,0.5]];portConstraint=eastwest;whiteSpace=wrap;html=1;" parent="BYFHXTLkIRluyruA3xxx-71" vertex="1">
          <mxGeometry y="104" width="180" height="26" as="geometry" />
        </mxCell>
        <mxCell id="BYFHXTLkIRluyruA3xxx-86" value="+ effectiveLineCount : int" style="text;strokeColor=none;fillColor=none;align=left;verticalAlign=top;spacingLeft=4;spacingRight=4;overflow=hidden;rotatable=0;points=[[0,0.5],[1,0.5]];portConstraint=eastwest;whiteSpace=wrap;html=1;" parent="BYFHXTLkIRluyruA3xxx-71" vertex="1">
          <mxGeometry y="130" width="180" height="26" as="geometry" />
        </mxCell>
        <mxCell id="BYFHXTLkIRluyruA3xxx-87" value="+ static : bool" style="text;strokeColor=none;fillColor=none;align=left;verticalAlign=top;spacingLeft=4;spacingRight=4;overflow=hidden;rotatable=0;points=[[0,0.5],[1,0.5]];portConstraint=eastwest;whiteSpace=wrap;html=1;" parent="BYFHXTLkIRluyruA3xxx-71" vertex="1">
          <mxGeometry y="156" width="180" height="26" as="geometry" />
        </mxCell>
        <mxCell id="BYFHXTLkIRluyruA3xxx-88" value="+ readonly : bool" style="text;strokeColor=none;fillColor=none;align=left;verticalAlign=top;spacingLeft=4;spacingRight=4;overflow=hidden;rotatable=0;points=[[0,0.5],[1,0.5]];portConstraint=eastwest;whiteSpace=wrap;html=1;" parent="BYFHXTLkIRluyruA3xxx-71" vertex="1">
          <mxGeometry y="182" width="180" height="26" as="geometry" />
        </mxCell>
        <mxCell id="BYFHXTLkIRluyruA3xxx-89" value="+ sealed : bool" style="text;strokeColor=none;fillColor=none;align=left;verticalAlign=top;spacingLeft=4;spacingRight=4;overflow=hidden;rotatable=0;points=[[0,0.5],[1,0.5]];portConstraint=eastwest;whiteSpace=wrap;html=1;" parent="BYFHXTLkIRluyruA3xxx-71" vertex="1">
          <mxGeometry y="208" width="180" height="26" as="geometry" />
        </mxCell>
        <mxCell id="BYFHXTLkIRluyruA3xxx-90" value="+ new : bool" style="text;strokeColor=none;fillColor=none;align=left;verticalAlign=top;spacingLeft=4;spacingRight=4;overflow=hidden;rotatable=0;points=[[0,0.5],[1,0.5]];portConstraint=eastwest;whiteSpace=wrap;html=1;" parent="BYFHXTLkIRluyruA3xxx-71" vertex="1">
          <mxGeometry y="234" width="180" height="26" as="geometry" />
        </mxCell>
        <mxCell id="BYFHXTLkIRluyruA3xxx-91" value="+ override : bool" style="text;strokeColor=none;fillColor=none;align=left;verticalAlign=top;spacingLeft=4;spacingRight=4;overflow=hidden;rotatable=0;points=[[0,0.5],[1,0.5]];portConstraint=eastwest;whiteSpace=wrap;html=1;" parent="BYFHXTLkIRluyruA3xxx-71" vertex="1">
          <mxGeometry y="260" width="180" height="26" as="geometry" />
        </mxCell>
        <mxCell id="BYFHXTLkIRluyruA3xxx-92" value="+ virtual : bool" style="text;strokeColor=none;fillColor=none;align=left;verticalAlign=top;spacingLeft=4;spacingRight=4;overflow=hidden;rotatable=0;points=[[0,0.5],[1,0.5]];portConstraint=eastwest;whiteSpace=wrap;html=1;" parent="BYFHXTLkIRluyruA3xxx-71" vertex="1">
          <mxGeometry y="286" width="180" height="26" as="geometry" />
        </mxCell>
        <mxCell id="BYFHXTLkIRluyruA3xxx-93" value="+ extensionMethod : true" style="text;strokeColor=none;fillColor=none;align=left;verticalAlign=top;spacingLeft=4;spacingRight=4;overflow=hidden;rotatable=0;points=[[0,0.5],[1,0.5]];portConstraint=eastwest;whiteSpace=wrap;html=1;" parent="BYFHXTLkIRluyruA3xxx-71" vertex="1">
          <mxGeometry y="312" width="180" height="26" as="geometry" />
        </mxCell>
        <mxCell id="BYFHXTLkIRluyruA3xxx-114" value="PARTIAL_WITH" style="html=1;verticalAlign=bottom;endArrow=block;curved=0;rounded=0;entryX=0;entryY=0.5;entryDx=0;entryDy=0;" parent="BYFHXTLkIRluyruA3xxx-71" target="BYFHXTLkIRluyruA3xxx-85" edge="1">
          <mxGeometry x="0.123" y="-50" width="80" relative="1" as="geometry">
            <mxPoint y="94" as="sourcePoint" />
            <mxPoint x="420" y="44" as="targetPoint" />
            <Array as="points">
              <mxPoint x="-50" y="94" />
              <mxPoint x="-50" y="117" />
            </Array>
            <mxPoint as="offset" />
          </mxGeometry>
        </mxCell>
        <mxCell id="BYFHXTLkIRluyruA3xxx-115" value="INVOKES" style="html=1;verticalAlign=bottom;endArrow=block;curved=0;rounded=0;exitX=0;exitY=0.5;exitDx=0;exitDy=0;entryX=0;entryY=0.231;entryDx=0;entryDy=0;entryPerimeter=0;" parent="BYFHXTLkIRluyruA3xxx-71" source="BYFHXTLkIRluyruA3xxx-87" target="BYFHXTLkIRluyruA3xxx-89" edge="1">
          <mxGeometry x="-0.1034" y="-30" width="80" relative="1" as="geometry">
            <mxPoint x="340" y="44" as="sourcePoint" />
            <mxPoint x="420" y="44" as="targetPoint" />
            <Array as="points">
              <mxPoint x="-50" y="169" />
              <mxPoint x="-50" y="214" />
            </Array>
            <mxPoint as="offset" />
          </mxGeometry>
        </mxCell>
        <mxCell id="BYFHXTLkIRluyruA3xxx-117" value="+ abstract : bool" style="text;strokeColor=none;fillColor=none;align=left;verticalAlign=top;spacingLeft=4;spacingRight=4;overflow=hidden;rotatable=0;points=[[0,0.5],[1,0.5]];portConstraint=eastwest;whiteSpace=wrap;html=1;" parent="BYFHXTLkIRluyruA3xxx-71" vertex="1">
          <mxGeometry y="338" width="180" height="26" as="geometry" />
        </mxCell>
        <mxCell id="BYFHXTLkIRluyruA3xxx-118" value="+ partial : bool" style="text;strokeColor=none;fillColor=none;align=left;verticalAlign=top;spacingLeft=4;spacingRight=4;overflow=hidden;rotatable=0;points=[[0,0.5],[1,0.5]];portConstraint=eastwest;whiteSpace=wrap;html=1;" parent="BYFHXTLkIRluyruA3xxx-71" vertex="1">
          <mxGeometry y="364" width="180" height="26" as="geometry" />
        </mxCell>
        <mxCell id="BYFHXTLkIRluyruA3xxx-119" value="+ relativePath : string" style="text;strokeColor=none;fillColor=none;align=left;verticalAlign=top;spacingLeft=4;spacingRight=4;overflow=hidden;rotatable=0;points=[[0,0.5],[1,0.5]];portConstraint=eastwest;whiteSpace=wrap;html=1;" parent="BYFHXTLkIRluyruA3xxx-71" vertex="1">
          <mxGeometry y="390" width="180" height="26" as="geometry" />
        </mxCell>
        <mxCell id="BYFHXTLkIRluyruA3xxx-84" value="OF_TYPE" style="html=1;verticalAlign=bottom;endArrow=block;curved=0;rounded=0;exitX=0.571;exitY=-0.003;exitDx=0;exitDy=0;exitPerimeter=0;entryX=-0.004;entryY=0.148;entryDx=0;entryDy=0;entryPerimeter=0;" parent="WIyWlLk6GJQsqaUBKTNV-1" source="BYFHXTLkIRluyruA3xxx-67" target="BYFHXTLkIRluyruA3xxx-58" edge="1">
          <mxGeometry x="-0.2192" y="30" width="80" relative="1" as="geometry">
            <mxPoint x="-259" y="417" as="sourcePoint" />
            <mxPoint x="110" y="150" as="targetPoint" />
            <Array as="points">
              <mxPoint x="-260" y="390" />
              <mxPoint x="-80" y="390" />
              <mxPoint x="-80" y="140" />
            </Array>
            <mxPoint as="offset" />
          </mxGeometry>
        </mxCell>
        <mxCell id="BYFHXTLkIRluyruA3xxx-111" value="EXTENDS" style="html=1;verticalAlign=bottom;endArrow=block;curved=0;rounded=0;exitX=0.844;exitY=0;exitDx=0;exitDy=0;exitPerimeter=0;" parent="WIyWlLk6GJQsqaUBKTNV-1" source="BYFHXTLkIRluyruA3xxx-71" edge="1">
          <mxGeometry x="-0.065" y="-21" width="80" relative="1" as="geometry">
            <mxPoint x="-388" y="410" as="sourcePoint" />
            <mxPoint x="120" y="80" as="targetPoint" />
            <Array as="points">
              <mxPoint x="-388" y="79" />
            </Array>
            <mxPoint as="offset" />
          </mxGeometry>
        </mxCell>
        <mxCell id="BYFHXTLkIRluyruA3xxx-112" value="RETURNS" style="html=1;verticalAlign=bottom;endArrow=block;curved=0;rounded=0;exitX=0.721;exitY=-0.002;exitDx=0;exitDy=0;entryX=-0.004;entryY=0.725;entryDx=0;entryDy=0;entryPerimeter=0;exitPerimeter=0;" parent="WIyWlLk6GJQsqaUBKTNV-1" source="BYFHXTLkIRluyruA3xxx-71" target="BYFHXTLkIRluyruA3xxx-2" edge="1">
          <mxGeometry x="-0.0045" y="-20" width="80" relative="1" as="geometry">
            <mxPoint x="-540" y="130" as="sourcePoint" />
            <mxPoint x="-460" y="130" as="targetPoint" />
            <Array as="points">
              <mxPoint x="-410" y="50" />
            </Array>
            <mxPoint as="offset" />
          </mxGeometry>
        </mxCell>
        <mxCell id="BYFHXTLkIRluyruA3xxx-113" value="ASSOCIATED_PROPERTY" style="html=1;verticalAlign=bottom;endArrow=block;curved=0;rounded=0;exitX=1;exitY=0.5;exitDx=0;exitDy=0;entryX=0.747;entryY=1.031;entryDx=0;entryDy=0;entryPerimeter=0;" parent="WIyWlLk6GJQsqaUBKTNV-1" source="BYFHXTLkIRluyruA3xxx-86" target="BYFHXTLkIRluyruA3xxx-70" edge="1">
          <mxGeometry x="-0.0236" y="-20" width="80" relative="1" as="geometry">
            <mxPoint x="-200" y="760" as="sourcePoint" />
            <mxPoint x="-120" y="760" as="targetPoint" />
            <Array as="points">
              <mxPoint x="-235" y="560" />
            </Array>
            <mxPoint as="offset" />
          </mxGeometry>
        </mxCell>
        <mxCell id="BYFHXTLkIRluyruA3xxx-116" value="THROWS" style="html=1;verticalAlign=bottom;endArrow=block;curved=0;rounded=0;exitX=0.607;exitY=-0.002;exitDx=0;exitDy=0;entryX=0;entryY=0.5;entryDx=0;entryDy=0;exitPerimeter=0;" parent="WIyWlLk6GJQsqaUBKTNV-1" source="BYFHXTLkIRluyruA3xxx-71" target="BYFHXTLkIRluyruA3xxx-3" edge="1">
          <mxGeometry x="0.0477" y="-20" width="80" relative="1" as="geometry">
            <mxPoint x="-490" y="50" as="sourcePoint" />
            <mxPoint x="-410" y="50" as="targetPoint" />
            <Array as="points">
              <mxPoint x="-430" y="20" />
            </Array>
            <mxPoint as="offset" />
          </mxGeometry>
        </mxCell>
        <mxCell id="BYFHXTLkIRluyruA3xxx-121" style="edgeStyle=orthogonalEdgeStyle;rounded=0;orthogonalLoop=1;jettySize=auto;html=1;endArrow=block;endFill=0;" parent="WIyWlLk6GJQsqaUBKTNV-1" source="BYFHXTLkIRluyruA3xxx-120" edge="1">
          <mxGeometry relative="1" as="geometry">
            <mxPoint x="-360" y="807" as="targetPoint" />
            <Array as="points">
              <mxPoint x="-350" y="807" />
              <mxPoint x="-350" y="807" />
            </Array>
          </mxGeometry>
        </mxCell>
        <mxCell id="BYFHXTLkIRluyruA3xxx-120" value="Constructor" style="swimlane;fontStyle=0;childLayout=stackLayout;horizontal=1;startSize=26;fillColor=none;horizontalStack=0;resizeParent=1;resizeParentMax=0;resizeLast=0;collapsible=1;marginBottom=0;whiteSpace=wrap;html=1;" parent="WIyWlLk6GJQsqaUBKTNV-1" vertex="1">
          <mxGeometry x="-290" y="782" width="140" height="50" as="geometry" />
        </mxCell>
        <mxCell id="BYFHXTLkIRluyruA3xxx-122" value="Parameter" style="swimlane;fontStyle=0;childLayout=stackLayout;horizontal=1;startSize=26;fillColor=none;horizontalStack=0;resizeParent=1;resizeParentMax=0;resizeLast=0;collapsible=1;marginBottom=0;whiteSpace=wrap;html=1;" parent="WIyWlLk6GJQsqaUBKTNV-1" vertex="1">
          <mxGeometry x="-610" y="272" width="140" height="78" as="geometry" />
        </mxCell>
        <mxCell id="BYFHXTLkIRluyruA3xxx-123" value="+ name : string" style="text;strokeColor=none;fillColor=none;align=left;verticalAlign=top;spacingLeft=4;spacingRight=4;overflow=hidden;rotatable=0;points=[[0,0.5],[1,0.5]];portConstraint=eastwest;whiteSpace=wrap;html=1;" parent="BYFHXTLkIRluyruA3xxx-122" vertex="1">
          <mxGeometry y="26" width="140" height="26" as="geometry" />
        </mxCell>
        <mxCell id="BYFHXTLkIRluyruA3xxx-124" value="+ index : int" style="text;strokeColor=none;fillColor=none;align=left;verticalAlign=top;spacingLeft=4;spacingRight=4;overflow=hidden;rotatable=0;points=[[0,0.5],[1,0.5]];portConstraint=eastwest;whiteSpace=wrap;html=1;" parent="BYFHXTLkIRluyruA3xxx-122" vertex="1">
          <mxGeometry y="52" width="140" height="26" as="geometry" />
        </mxCell>
        <mxCell id="BYFHXTLkIRluyruA3xxx-126" value="HAS" style="html=1;verticalAlign=bottom;endArrow=block;curved=0;rounded=0;exitX=0.222;exitY=0.001;exitDx=0;exitDy=0;exitPerimeter=0;entryX=0.789;entryY=1.014;entryDx=0;entryDy=0;entryPerimeter=0;" parent="WIyWlLk6GJQsqaUBKTNV-1" source="BYFHXTLkIRluyruA3xxx-71" target="BYFHXTLkIRluyruA3xxx-124" edge="1">
          <mxGeometry x="-0.2048" y="20" width="80" relative="1" as="geometry">
            <mxPoint x="-550" y="390" as="sourcePoint" />
            <mxPoint x="-470" y="390" as="targetPoint" />
            <mxPoint as="offset" />
          </mxGeometry>
        </mxCell>
        <mxCell id="BYFHXTLkIRluyruA3xxx-127" value="OF_TYPE" style="html=1;verticalAlign=bottom;endArrow=block;curved=0;rounded=0;entryX=0;entryY=0.042;entryDx=0;entryDy=0;entryPerimeter=0;exitX=0.785;exitY=-0.005;exitDx=0;exitDy=0;exitPerimeter=0;" parent="WIyWlLk6GJQsqaUBKTNV-1" source="BYFHXTLkIRluyruA3xxx-122" target="BYFHXTLkIRluyruA3xxx-0" edge="1">
          <mxGeometry x="-0.2866" y="-20" width="80" relative="1" as="geometry">
            <mxPoint x="-380" y="170" as="sourcePoint" />
            <mxPoint x="-300" y="170" as="targetPoint" />
            <Array as="points">
              <mxPoint x="-500" y="260" />
              <mxPoint x="-500" y="-10" />
            </Array>
            <mxPoint as="offset" />
          </mxGeometry>
        </mxCell>
        <mxCell id="BYFHXTLkIRluyruA3xxx-128" value="NameSpace" style="swimlane;fontStyle=0;childLayout=stackLayout;horizontal=1;startSize=26;fillColor=none;horizontalStack=0;resizeParent=1;resizeParentMax=0;resizeLast=0;collapsible=1;marginBottom=0;whiteSpace=wrap;html=1;" parent="WIyWlLk6GJQsqaUBKTNV-1" vertex="1">
          <mxGeometry x="140" y="-160" width="140" height="52" as="geometry" />
        </mxCell>
        <mxCell id="BYFHXTLkIRluyruA3xxx-130" value="+ fqn : string" style="text;strokeColor=none;fillColor=none;align=left;verticalAlign=top;spacingLeft=4;spacingRight=4;overflow=hidden;rotatable=0;points=[[0,0.5],[1,0.5]];portConstraint=eastwest;whiteSpace=wrap;html=1;" parent="BYFHXTLkIRluyruA3xxx-128" vertex="1">
          <mxGeometry y="26" width="140" height="26" as="geometry" />
        </mxCell>
        <mxCell id="BYFHXTLkIRluyruA3xxx-132" value="CONTAINS" style="html=1;verticalAlign=bottom;endArrow=block;curved=0;rounded=0;entryX=0.5;entryY=0;entryDx=0;entryDy=0;exitX=0.5;exitY=1.123;exitDx=0;exitDy=0;exitPerimeter=0;" parent="WIyWlLk6GJQsqaUBKTNV-1" source="BYFHXTLkIRluyruA3xxx-130" target="BYFHXTLkIRluyruA3xxx-0" edge="1">
          <mxGeometry x="0.0566" y="30" width="80" relative="1" as="geometry">
            <mxPoint x="150" y="-80" as="sourcePoint" />
            <mxPoint x="230" y="-80" as="targetPoint" />
            <mxPoint as="offset" />
          </mxGeometry>
        </mxCell>
        <mxCell id="BYFHXTLkIRluyruA3xxx-134" value="CREATES_ARRAY" style="html=1;verticalAlign=bottom;endArrow=block;curved=0;rounded=0;entryX=-0.006;entryY=0.944;entryDx=0;entryDy=0;entryPerimeter=0;exitX=0.943;exitY=0.001;exitDx=0;exitDy=0;exitPerimeter=0;" parent="WIyWlLk6GJQsqaUBKTNV-1" source="BYFHXTLkIRluyruA3xxx-71" target="BYFHXTLkIRluyruA3xxx-56" edge="1">
          <mxGeometry x="-0.0743" y="-21" width="80" relative="1" as="geometry">
            <mxPoint x="-30" y="110" as="sourcePoint" />
            <mxPoint x="50" y="110" as="targetPoint" />
            <Array as="points">
              <mxPoint x="-370" y="109" />
            </Array>
            <mxPoint as="offset" />
          </mxGeometry>
        </mxCell>
        <mxCell id="BYFHXTLkIRluyruA3xxx-140" style="edgeStyle=orthogonalEdgeStyle;rounded=0;orthogonalLoop=1;jettySize=auto;html=1;endArrow=block;endFill=0;" parent="WIyWlLk6GJQsqaUBKTNV-1" source="BYFHXTLkIRluyruA3xxx-135" target="BYFHXTLkIRluyruA3xxx-0" edge="1">
          <mxGeometry relative="1" as="geometry">
            <Array as="points">
              <mxPoint x="380" y="240" />
              <mxPoint x="230" y="240" />
            </Array>
          </mxGeometry>
        </mxCell>
        <mxCell id="BYFHXTLkIRluyruA3xxx-135" value="Enum" style="swimlane;fontStyle=0;childLayout=stackLayout;horizontal=1;startSize=26;fillColor=none;horizontalStack=0;resizeParent=1;resizeParentMax=0;resizeLast=0;collapsible=1;marginBottom=0;whiteSpace=wrap;html=1;" parent="WIyWlLk6GJQsqaUBKTNV-1" vertex="1">
          <mxGeometry x="310" y="258" width="140" height="52" as="geometry" />
        </mxCell>
        <mxCell id="BYFHXTLkIRluyruA3xxx-146" style="edgeStyle=orthogonalEdgeStyle;rounded=0;orthogonalLoop=1;jettySize=auto;html=1;endArrow=block;endFill=0;" parent="WIyWlLk6GJQsqaUBKTNV-1" source="BYFHXTLkIRluyruA3xxx-139" target="BYFHXTLkIRluyruA3xxx-141" edge="1">
          <mxGeometry relative="1" as="geometry">
            <Array as="points">
              <mxPoint x="-110" y="675" />
            </Array>
          </mxGeometry>
        </mxCell>
        <mxCell id="BYFHXTLkIRluyruA3xxx-139" value="Enum" style="swimlane;fontStyle=0;childLayout=stackLayout;horizontal=1;startSize=26;fillColor=none;horizontalStack=0;resizeParent=1;resizeParentMax=0;resizeLast=0;collapsible=1;marginBottom=0;whiteSpace=wrap;html=1;" parent="WIyWlLk6GJQsqaUBKTNV-1" vertex="1">
          <mxGeometry x="-180" y="701" width="140" height="52" as="geometry" />
        </mxCell>
        <mxCell id="BYFHXTLkIRluyruA3xxx-145" value="+ name : string" style="text;strokeColor=none;fillColor=none;align=left;verticalAlign=top;spacingLeft=4;spacingRight=4;overflow=hidden;rotatable=0;points=[[0,0.5],[1,0.5]];portConstraint=eastwest;whiteSpace=wrap;html=1;" parent="BYFHXTLkIRluyruA3xxx-139" vertex="1">
          <mxGeometry y="26" width="140" height="26" as="geometry" />
        </mxCell>
        <mxCell id="BYFHXTLkIRluyruA3xxx-141" value="Value" style="swimlane;fontStyle=0;childLayout=stackLayout;horizontal=1;startSize=26;fillColor=none;horizontalStack=0;resizeParent=1;resizeParentMax=0;resizeLast=0;collapsible=1;marginBottom=0;whiteSpace=wrap;html=1;" parent="WIyWlLk6GJQsqaUBKTNV-1" vertex="1">
          <mxGeometry x="-330" y="643" width="140" height="52" as="geometry" />
        </mxCell>
        <mxCell id="BYFHXTLkIRluyruA3xxx-142" value="+ value : &amp;lt;T&amp;gt;" style="text;strokeColor=none;fillColor=none;align=left;verticalAlign=top;spacingLeft=4;spacingRight=4;overflow=hidden;rotatable=0;points=[[0,0.5],[1,0.5]];portConstraint=eastwest;whiteSpace=wrap;html=1;" parent="BYFHXTLkIRluyruA3xxx-141" vertex="1">
          <mxGeometry y="26" width="140" height="26" as="geometry" />
        </mxCell>
        <mxCell id="BYFHXTLkIRluyruA3xxx-148" value="OF_TYPE" style="html=1;verticalAlign=bottom;endArrow=block;curved=0;rounded=0;exitX=0.998;exitY=0.372;exitDx=0;exitDy=0;entryX=0.5;entryY=1;entryDx=0;entryDy=0;exitPerimeter=0;" parent="WIyWlLk6GJQsqaUBKTNV-1" source="BYFHXTLkIRluyruA3xxx-139" target="BYFHXTLkIRluyruA3xxx-135" edge="1">
          <mxGeometry x="-0.8984" y="-30" width="80" relative="1" as="geometry">
            <mxPoint x="-30" y="700" as="sourcePoint" />
            <mxPoint x="420" y="330" as="targetPoint" />
            <Array as="points">
              <mxPoint x="-10" y="720" />
              <mxPoint x="-10" y="340" />
              <mxPoint x="380" y="340" />
            </Array>
            <mxPoint as="offset" />
          </mxGeometry>
        </mxCell>
        <mxCell id="BYFHXTLkIRluyruA3xxx-149" value="" style="shape=waypoint;sketch=0;fillStyle=solid;size=6;pointerEvents=1;points=[];fillColor=none;resizable=0;rotatable=0;perimeter=centerPerimeter;snapToPoint=1;" parent="WIyWlLk6GJQsqaUBKTNV-1" vertex="1">
          <mxGeometry x="-600" y="600" width="20" height="20" as="geometry" />
        </mxCell>
        <mxCell id="BYFHXTLkIRluyruA3xxx-150" value="LineNumber" style="swimlane;fontStyle=0;childLayout=stackLayout;horizontal=1;startSize=26;fillColor=none;horizontalStack=0;resizeParent=1;resizeParentMax=0;resizeLast=0;collapsible=1;marginBottom=0;whiteSpace=wrap;html=1;" parent="WIyWlLk6GJQsqaUBKTNV-1" vertex="1">
          <mxGeometry x="-710" y="656" width="140" height="52" as="geometry" />
        </mxCell>
        <mxCell id="BYFHXTLkIRluyruA3xxx-153" value="+ lineNumber : int" style="text;strokeColor=none;fillColor=none;align=left;verticalAlign=top;spacingLeft=4;spacingRight=4;overflow=hidden;rotatable=0;points=[[0,0.5],[1,0.5]];portConstraint=eastwest;whiteSpace=wrap;html=1;" parent="BYFHXTLkIRluyruA3xxx-150" vertex="1">
          <mxGeometry y="26" width="140" height="26" as="geometry" />
        </mxCell>
        <mxCell id="BYFHXTLkIRluyruA3xxx-154" style="edgeStyle=orthogonalEdgeStyle;rounded=0;orthogonalLoop=1;jettySize=auto;html=1;entryX=0.326;entryY=0.621;entryDx=0;entryDy=0;entryPerimeter=0;endArrow=none;endFill=0;dashed=1;" parent="WIyWlLk6GJQsqaUBKTNV-1" source="BYFHXTLkIRluyruA3xxx-150" target="BYFHXTLkIRluyruA3xxx-149" edge="1">
          <mxGeometry relative="1" as="geometry">
            <Array as="points">
              <mxPoint x="-640" y="610" />
            </Array>
          </mxGeometry>
        </mxCell>
        <mxCell id="BYFHXTLkIRluyruA3xxx-155" value="File" style="swimlane;fontStyle=0;childLayout=stackLayout;horizontal=1;startSize=26;fillColor=none;horizontalStack=0;resizeParent=1;resizeParentMax=0;resizeLast=0;collapsible=1;marginBottom=0;whiteSpace=wrap;html=1;" parent="WIyWlLk6GJQsqaUBKTNV-1" vertex="1">
          <mxGeometry x="-110" y="-160" width="140" height="78" as="geometry" />
        </mxCell>
        <mxCell id="BYFHXTLkIRluyruA3xxx-158" value="+ name : string" style="text;strokeColor=none;fillColor=none;align=left;verticalAlign=top;spacingLeft=4;spacingRight=4;overflow=hidden;rotatable=0;points=[[0,0.5],[1,0.5]];portConstraint=eastwest;whiteSpace=wrap;html=1;" parent="BYFHXTLkIRluyruA3xxx-155" vertex="1">
          <mxGeometry y="26" width="140" height="26" as="geometry" />
        </mxCell>
        <mxCell id="BYFHXTLkIRluyruA3xxx-170" value="+ fileName : string" style="text;strokeColor=none;fillColor=none;align=left;verticalAlign=top;spacingLeft=4;spacingRight=4;overflow=hidden;rotatable=0;points=[[0,0.5],[1,0.5]];portConstraint=eastwest;whiteSpace=wrap;html=1;" parent="BYFHXTLkIRluyruA3xxx-155" vertex="1">
          <mxGeometry y="52" width="140" height="26" as="geometry" />
        </mxCell>
        <mxCell id="BYFHXTLkIRluyruA3xxx-161" value="USES" style="html=1;verticalAlign=bottom;endArrow=block;curved=0;rounded=0;entryX=0;entryY=0.5;entryDx=0;entryDy=0;exitX=0.988;exitY=-0.026;exitDx=0;exitDy=0;exitPerimeter=0;" parent="WIyWlLk6GJQsqaUBKTNV-1" source="BYFHXTLkIRluyruA3xxx-158" target="BYFHXTLkIRluyruA3xxx-128" edge="1">
          <mxGeometry width="80" relative="1" as="geometry">
            <mxPoint x="40" y="-134.42" as="sourcePoint" />
            <mxPoint x="120" y="-134.42" as="targetPoint" />
          </mxGeometry>
        </mxCell>
        <mxCell id="BYFHXTLkIRluyruA3xxx-164" style="edgeStyle=orthogonalEdgeStyle;rounded=0;orthogonalLoop=1;jettySize=auto;html=1;endArrow=block;endFill=0;" parent="WIyWlLk6GJQsqaUBKTNV-1" source="BYFHXTLkIRluyruA3xxx-162" target="BYFHXTLkIRluyruA3xxx-141" edge="1">
          <mxGeometry relative="1" as="geometry">
            <Array as="points">
              <mxPoint x="-110" y="661" />
            </Array>
          </mxGeometry>
        </mxCell>
        <mxCell id="BYFHXTLkIRluyruA3xxx-162" value="Primitive" style="swimlane;fontStyle=0;childLayout=stackLayout;horizontal=1;startSize=26;fillColor=none;horizontalStack=0;resizeParent=1;resizeParentMax=0;resizeLast=0;collapsible=1;marginBottom=0;whiteSpace=wrap;html=1;" parent="WIyWlLk6GJQsqaUBKTNV-1" vertex="1">
          <mxGeometry x="-180" y="580" width="140" height="52" as="geometry" />
        </mxCell>
        <mxCell id="BYFHXTLkIRluyruA3xxx-163" value="+ name : string" style="text;strokeColor=none;fillColor=none;align=left;verticalAlign=top;spacingLeft=4;spacingRight=4;overflow=hidden;rotatable=0;points=[[0,0.5],[1,0.5]];portConstraint=eastwest;whiteSpace=wrap;html=1;" parent="BYFHXTLkIRluyruA3xxx-162" vertex="1">
          <mxGeometry y="26" width="140" height="26" as="geometry" />
        </mxCell>
        <mxCell id="BYFHXTLkIRluyruA3xxx-165" value="HAS" style="html=1;verticalAlign=bottom;endArrow=block;curved=0;rounded=0;exitX=0.204;exitY=-0.027;exitDx=0;exitDy=0;exitPerimeter=0;entryX=0.218;entryY=1.053;entryDx=0;entryDy=0;entryPerimeter=0;" parent="WIyWlLk6GJQsqaUBKTNV-1" source="BYFHXTLkIRluyruA3xxx-162" target="BYFHXTLkIRluyruA3xxx-66" edge="1">
          <mxGeometry x="-0.5258" y="-29" width="80" relative="1" as="geometry">
            <mxPoint x="-70" y="550" as="sourcePoint" />
            <mxPoint x="10" y="540" as="targetPoint" />
            <Array as="points" />
            <mxPoint as="offset" />
          </mxGeometry>
        </mxCell>
        <mxCell id="BYFHXTLkIRluyruA3xxx-168" value="OF_TYPE" style="html=1;verticalAlign=bottom;endArrow=block;curved=0;rounded=0;exitX=0.857;exitY=0;exitDx=0;exitDy=0;exitPerimeter=0;entryX=-0.001;entryY=0.313;entryDx=0;entryDy=0;entryPerimeter=0;" parent="WIyWlLk6GJQsqaUBKTNV-1" source="BYFHXTLkIRluyruA3xxx-162" edge="1">
          <mxGeometry x="0.6148" y="-21" width="80" relative="1" as="geometry">
            <mxPoint x="-59.74000000000001" y="558.998" as="sourcePoint" />
            <mxPoint x="119.81999999999994" y="169.40800000000016" as="targetPoint" />
            <Array as="points">
              <mxPoint x="-60" y="539.27" />
              <mxPoint x="-25" y="539.27" />
              <mxPoint x="-25" y="169" />
            </Array>
            <mxPoint as="offset" />
          </mxGeometry>
        </mxCell>
        <mxCell id="BYFHXTLkIRluyruA3xxx-171" value="Directory" style="swimlane;fontStyle=0;childLayout=stackLayout;horizontal=1;startSize=26;fillColor=none;horizontalStack=0;resizeParent=1;resizeParentMax=0;resizeLast=0;collapsible=1;marginBottom=0;whiteSpace=wrap;html=1;" parent="WIyWlLk6GJQsqaUBKTNV-1" vertex="1">
          <mxGeometry x="-520" y="-160" width="140" height="52" as="geometry" />
        </mxCell>
        <mxCell id="BYFHXTLkIRluyruA3xxx-173" value="+ fileName : string" style="text;strokeColor=none;fillColor=none;align=left;verticalAlign=top;spacingLeft=4;spacingRight=4;overflow=hidden;rotatable=0;points=[[0,0.5],[1,0.5]];portConstraint=eastwest;whiteSpace=wrap;html=1;" parent="BYFHXTLkIRluyruA3xxx-171" vertex="1">
          <mxGeometry y="26" width="140" height="26" as="geometry" />
        </mxCell>
        <mxCell id="BYFHXTLkIRluyruA3xxx-174" value="CONTAINS" style="html=1;verticalAlign=bottom;endArrow=block;curved=0;rounded=0;exitX=1.005;exitY=0.011;exitDx=0;exitDy=0;exitPerimeter=0;entryX=0.003;entryY=0.035;entryDx=0;entryDy=0;entryPerimeter=0;" parent="WIyWlLk6GJQsqaUBKTNV-1" source="BYFHXTLkIRluyruA3xxx-173" target="BYFHXTLkIRluyruA3xxx-158" edge="1">
          <mxGeometry width="80" relative="1" as="geometry">
            <mxPoint x="-190" y="-134.2" as="sourcePoint" />
            <mxPoint x="-110" y="-134.2" as="targetPoint" />
          </mxGeometry>
        </mxCell>
        <mxCell id="9T2Q7gPqiUh0nlpwdXqd-0" value="CONTAINS" style="html=1;verticalAlign=bottom;endArrow=block;curved=0;rounded=0;exitX=1.004;exitY=0.825;exitDx=0;exitDy=0;exitPerimeter=0;entryX=1.007;entryY=1.004;entryDx=0;entryDy=0;entryPerimeter=0;" parent="WIyWlLk6GJQsqaUBKTNV-1" edge="1">
          <mxGeometry x="0.0768" y="40" width="80" relative="1" as="geometry">
            <mxPoint x="280" y="-150" as="sourcePoint" />
            <mxPoint x="280" y="-119" as="targetPoint" />
            <Array as="points">
              <mxPoint x="330" y="-150" />
              <mxPoint x="330" y="-120" />
            </Array>
            <mxPoint as="offset" />
          </mxGeometry>
        </mxCell>
        <mxCell id="2DM09B1xd8p4a1v3lQUs-0" value="CONTAINS" style="html=1;verticalAlign=bottom;endArrow=block;curved=0;rounded=0;entryX=0.25;entryY=0;entryDx=0;entryDy=0;exitX=0.988;exitY=-0.026;exitDx=0;exitDy=0;exitPerimeter=0;" edge="1" parent="WIyWlLk6GJQsqaUBKTNV-1" target="BYFHXTLkIRluyruA3xxx-0">
          <mxGeometry x="-0.4146" y="-20" width="80" relative="1" as="geometry">
            <mxPoint x="30" y="-90" as="sourcePoint" />
            <mxPoint x="142" y="-89" as="targetPoint" />
            <Array as="points">
              <mxPoint x="165" y="-90" />
            </Array>
            <mxPoint as="offset" />
          </mxGeometry>
        </mxCell>
        <mxCell id="2DM09B1xd8p4a1v3lQUs-3" value="Project" style="swimlane;fontStyle=0;childLayout=stackLayout;horizontal=1;startSize=26;fillColor=none;horizontalStack=0;resizeParent=1;resizeParentMax=0;resizeLast=0;collapsible=1;marginBottom=0;whiteSpace=wrap;html=1;" vertex="1" parent="WIyWlLk6GJQsqaUBKTNV-1">
          <mxGeometry x="-320" y="-124" width="140" height="104" as="geometry" />
        </mxCell>
        <mxCell id="2DM09B1xd8p4a1v3lQUs-4" value="+ name : string" style="text;strokeColor=none;fillColor=none;align=left;verticalAlign=top;spacingLeft=4;spacingRight=4;overflow=hidden;rotatable=0;points=[[0,0.5],[1,0.5]];portConstraint=eastwest;whiteSpace=wrap;html=1;" vertex="1" parent="2DM09B1xd8p4a1v3lQUs-3">
          <mxGeometry y="26" width="140" height="26" as="geometry" />
        </mxCell>
        <mxCell id="2DM09B1xd8p4a1v3lQUs-5" value="+ relativePath : string" style="text;strokeColor=none;fillColor=none;align=left;verticalAlign=top;spacingLeft=4;spacingRight=4;overflow=hidden;rotatable=0;points=[[0,0.5],[1,0.5]];portConstraint=eastwest;whiteSpace=wrap;html=1;" vertex="1" parent="2DM09B1xd8p4a1v3lQUs-3">
          <mxGeometry y="52" width="140" height="26" as="geometry" />
        </mxCell>
        <mxCell id="2DM09B1xd8p4a1v3lQUs-6" value="+ absolutePath : string" style="text;strokeColor=none;fillColor=none;align=left;verticalAlign=top;spacingLeft=4;spacingRight=4;overflow=hidden;rotatable=0;points=[[0,0.5],[1,0.5]];portConstraint=eastwest;whiteSpace=wrap;html=1;" vertex="1" parent="2DM09B1xd8p4a1v3lQUs-3">
          <mxGeometry y="78" width="140" height="26" as="geometry" />
        </mxCell>
        <mxCell id="2DM09B1xd8p4a1v3lQUs-8" value="CONTAINS" style="html=1;verticalAlign=bottom;endArrow=block;curved=0;rounded=0;entryX=-0.011;entryY=0.378;entryDx=0;entryDy=0;exitX=1.005;exitY=0.16;exitDx=0;exitDy=0;exitPerimeter=0;entryPerimeter=0;" edge="1" parent="WIyWlLk6GJQsqaUBKTNV-1" source="2DM09B1xd8p4a1v3lQUs-5" target="BYFHXTLkIRluyruA3xxx-170">
          <mxGeometry x="-0.4006" y="-21" width="80" relative="1" as="geometry">
            <mxPoint x="-166" y="-40" as="sourcePoint" />
            <mxPoint x="-54" y="-39" as="targetPoint" />
            <Array as="points">
              <mxPoint x="-150" y="-68" />
              <mxPoint x="-150" y="-98" />
            </Array>
            <mxPoint x="-11" y="18" as="offset" />
          </mxGeometry>
        </mxCell>
      </root>
    </mxGraphModel>
  </diagram>
</mxfile>
